<svg version="1.1" id="Capa_1" xmlns="http://www.w3.org/2000/svg" xmlns:xlink="http://www.w3.org/1999/xlink" x="0px" y="0px"
	 viewBox="0 0 399.734 399.734" style="enable-background:new 0 0 399.734 399.734;" xml:space="preserve" fill="#7fba23">
<path d="M330.82,75.059c0-8.591-11.412-15.914-27.416-18.727v-9.593h-5.099C294.525,20.352,271.783,0,244.367,0
	c-18.362,0-34.621,9.138-44.5,23.095C189.988,9.138,173.73,0,155.367,0c-27.416,0-50.158,20.352-53.938,46.739H96.33v9.593
	c-16.003,2.813-27.416,10.136-27.416,18.727h14.478c-0.496,2.851-0.764,5.782-0.764,8.748c0,20.975,12.668,38.039,28.239,38.039
	s28.239-17.064,28.239-38.039c0-2.966-0.268-5.897-0.763-8.748h14.477c0-8.591-11.412-15.914-27.416-18.727v-9.593h-3.646
	C125.29,31.442,139.013,20,155.367,20c19.023,0,34.5,15.477,34.5,34.5v309.234h-17.939c-19.886,0-36,16.119-36,36h127.876
	c0-19.881-16.113-36-35.995-36h-17.942V54.5c0-19.023,15.477-34.5,34.5-34.5c16.355,0,30.077,11.442,33.609,26.739h-3.646v9.593
	c-16.003,2.813-27.416,10.136-27.416,18.727h14.478c-0.496,2.851-0.764,5.782-0.764,8.748c0,20.975,12.668,38.039,28.239,38.039
	c15.571,0,28.239-17.064,28.239-38.039c0-2.966-0.268-5.897-0.763-8.748H330.82z M131.107,83.806
	c0,16.563-9.079,30.039-20.239,30.039S90.628,100.37,90.628,83.806c0-2.989,0.31-5.929,0.898-8.748h38.683
	C130.797,77.877,131.107,80.816,131.107,83.806z M309.107,83.806c0,16.563-9.079,30.039-20.239,30.039
	c-11.16,0-20.239-13.475-20.239-30.039c0-2.989,0.31-5.929,0.898-8.748h38.683C308.797,77.877,309.107,80.816,309.107,83.806z"/>
</svg>
