<svg version="1.1" id="Capa_1" xmlns="http://www.w3.org/2000/svg" xmlns:xlink="http://www.w3.org/1999/xlink" x="0px" y="0px"
	 viewBox="0 0 373.326 373.326" style="enable-background:new 0 0 373.326 373.326;" xml:space="preserve" fill="#7fba23">
<path d="M315.844,108.042c0.45-3.179,0.698-6.423,0.698-9.724c0-38.07-30.972-69.042-69.042-69.042
	c-17.099,0-32.753,6.261-44.825,16.594C187.888,18.577,158.987,0,125.826,0C77.667,0,38.487,39.18,38.487,87.339
	c0,21.983,8.167,42.093,21.622,57.462c-9.51,11.833-15.219,26.844-15.219,43.171c0,38.07,30.972,69.042,69.042,69.042
	c15.223,0,29.303-4.962,40.73-13.341v87.653c0,2.757-2.23,5-4.971,5h-25c-8.287,0-15.029,6.729-15.029,15v7
	c0,8.271,6.742,15,15.029,15h107c8.255,0,14.971-6.729,14.971-15v-7c0-8.271-6.716-15-14.971-15h-25c-2.726,0-5.029-2.29-5.029-5
	v-94.657c13.333,8.254,29.037,13.026,45.837,13.026c48.159,0,87.339-39.18,87.339-87.339
	C334.839,141.843,327.727,122.962,315.844,108.042z"/>
</svg>
