<svg id="svg-van" xmlns="http://www.w3.org/2000/svg" viewBox="0 0 200 75" width="200" preserveAspectRatio="xMidYMid">
    <defs>
                    <style>
.cls-1,
    .cls-2 {
        fill: none;
        stroke-linecap: round;
        stroke-linejoin: round;
        stroke-width: 2px;
    }

    .cls-1 {
        stroke: #7fba23;
    }

    .cls-2 {
        stroke: #7fba23;
    }

    .cls-3 {
        fill: #7fba23;
    }
                    </style>
                </defs>
            <g id="van">
                <circle class="cls-1" cx="51.77" cy="64.36" r="1.92"></circle>
                <circle class="cls-1" cx="134.75" cy="66.15" r="1.92"></circle>
                <line class="cls-2" x1="123.9" y1="42.08" x2="127.38" y2="42.08"></line>
                <circle class="cls-2" cx="51.77" cy="64.36" r="10.02"></circle>
                <circle class="cls-2" cx="134.75" cy="66.15" r="8.22"></circle>
                <path class="cls-2" d="M122.39,37.89V21.62a0.51,0.51,0,0,1,.51-0.51h14.67a0.82,0.82,0,0,1,.67.51L146.48,38Z" transform="translate(0 0.03)"></path>
                <path class="cls-1" d="M117.23,5V60.35a4,4,0,0,1-4,4H65.76a14,14,0,0,0-25.47-8,13.86,13.86,0,0,0-2.5,8H26.94a4,4,0,1,1,0-8h0.14V5a4,4,0,0,1,4-4h82.2A4,4,0,0,1,117.23,5Z" transform="translate(0 0.03)"></path>
                <line class="cls-1" x1="27.07" y1="56.39" x2="36.24" y2="56.39"></line>
                <line class="cls-2" x1="79.75" y1="56.39" x2="113.68" y2="56.39"></line>
                <line class="cls-2" x1="72.54" y1="56.39" x2="75.49" y2="56.39"></line>
                <line class="cls-2" x1="147.45" y1="56.39" x2="153" y2="56.39"></line>
                <path class="cls-2" d="M158,60.35a4,4,0,0,1-4,4h-8a11.64,11.64,0,0,0-23-.11v0.08h-1.82a4,4,0,0,1-4-4V20.42a4,4,0,0,1,4-4h17.46c2.2,0,3.49,1.76,4.46,4l8.53,18a9.43,9.43,0,0,1,1,4.23V56.39H154A4,4,0,0,1,158,60.35Z" transform="translate(0 0.03)"></path>
                <path class="cls-3" d="M69.07,14.53a1.9,1.9,0,0,0-1.66,1,3.53,3.53,0,0,0-2.8-1.14A5.49,5.49,0,0,0,59.19,20s0,0.07,0,.11a5.37,5.37,0,0,0,5.29,5.65,3.8,3.8,0,0,0,2.92-1.22,1.71,1.71,0,0,0,1.66,1.11c1.18,0,1.73-.77,1.73-2.33V16.85C70.8,15.28,70.27,14.53,69.07,14.53ZM65,22.19A2.21,2.21,0,1,1,67.23,20h0A2.21,2.21,0,0,1,65,22.19h0Z" transform="translate(0 0.03)"></path>
                <path class="cls-3" d="M78.77,14.35a5.62,5.62,0,0,0-5.91,5.73,5.9,5.9,0,0,0,11.8,0A5.59,5.59,0,0,0,78.77,14.35Zm0,8A2.21,2.21,0,1,1,81,20.16h0a2.21,2.21,0,0,1-2.19,2.21h0Z" transform="translate(0 0.03)"></path>
                <path class="cls-3" d="M82.8,28.82H79.87a0.84,0.84,0,0,0-.83.71h0a7.39,7.39,0,0,1-14.52,0,0.85,0.85,0,0,0-.83-0.69H60.75a0.84,0.84,0,0,0-.84.84h0v0.07h0a12,12,0,0,0,23.73,0h0V29.66A0.84,0.84,0,0,0,82.8,28.82Z" transform="translate(0 0.03)"></path>
            </g>
        </svg>